<svg width="392" height="102" viewBox="0 0 392 102" fill="none" xmlns="http://www.w3.org/2000/svg">
<rect width="392" height="102" rx="29" fill="#D9D9D9"/>
<path d="M104.99 48.5215H125.525V52.018H104.99V48.5215ZM105.434 66.448H128.8V70H101.327V31.15H127.967V34.702H105.434V66.448ZM149.286 70.2775C146.4 70.2775 143.81 69.6485 141.516 68.3905C139.259 67.0955 137.483 65.338 136.188 63.118C134.893 60.861 134.246 58.2895 134.246 55.4035C134.246 52.4805 134.893 49.909 136.188 47.689C137.483 45.469 139.259 43.73 141.516 42.472C143.81 41.214 146.4 40.585 149.286 40.585C151.765 40.585 154.004 41.066 156.002 42.028C158 42.99 159.572 44.433 160.719 46.357L157.778 48.355C156.779 46.875 155.539 45.7835 154.059 45.0805C152.579 44.3775 150.97 44.026 149.231 44.026C147.159 44.026 145.29 44.507 143.625 45.469C141.96 46.394 140.647 47.7075 139.685 49.4095C138.723 51.1115 138.242 53.1095 138.242 55.4035C138.242 57.6975 138.723 59.6955 139.685 61.3975C140.647 63.0995 141.96 64.4315 143.625 65.3935C145.29 66.3185 147.159 66.781 149.231 66.781C150.97 66.781 152.579 66.4295 154.059 65.7265C155.539 65.0235 156.779 63.9505 157.778 62.5075L160.719 64.5055C159.572 66.3925 158 67.8355 156.002 68.8345C154.004 69.7965 151.765 70.2775 149.286 70.2775ZM179.85 70.2775C177.038 70.2775 174.503 69.6485 172.246 68.3905C170.026 67.0955 168.269 65.338 166.974 63.118C165.679 60.861 165.031 58.2895 165.031 55.4035C165.031 52.4805 165.679 49.909 166.974 47.689C168.269 45.469 170.026 43.73 172.246 42.472C174.466 41.214 177.001 40.585 179.85 40.585C182.736 40.585 185.289 41.214 187.509 42.472C189.766 43.73 191.523 45.469 192.781 47.689C194.076 49.909 194.724 52.4805 194.724 55.4035C194.724 58.2895 194.076 60.861 192.781 63.118C191.523 65.338 189.766 67.0955 187.509 68.3905C185.252 69.6485 182.699 70.2775 179.85 70.2775ZM179.85 66.781C181.959 66.781 183.827 66.3185 185.455 65.3935C187.083 64.4315 188.36 63.0995 189.285 61.3975C190.247 59.6585 190.728 57.6605 190.728 55.4035C190.728 53.1095 190.247 51.1115 189.285 49.4095C188.36 47.7075 187.083 46.394 185.455 45.469C183.827 44.507 181.977 44.026 179.905 44.026C177.833 44.026 175.983 44.507 174.355 45.469C172.727 46.394 171.432 47.7075 170.47 49.4095C169.508 51.1115 169.027 53.1095 169.027 55.4035C169.027 57.6605 169.508 59.6585 170.47 61.3975C171.432 63.0995 172.727 64.4315 174.355 65.3935C175.983 66.3185 177.815 66.781 179.85 66.781ZM203.601 70V31.15H218.142C221.435 31.15 224.265 31.6865 226.633 32.7595C229.001 33.7955 230.814 35.3125 232.072 37.3105C233.367 39.2715 234.015 41.658 234.015 44.47C234.015 47.208 233.367 49.576 232.072 51.574C230.814 53.535 229.001 55.052 226.633 56.125C224.265 57.161 221.435 57.679 218.142 57.679H205.876L207.708 55.792V70H203.601ZM230.13 70L220.14 55.903H224.58L234.625 70H230.13ZM207.708 56.125L205.876 54.1825H218.031C221.916 54.1825 224.857 53.3315 226.855 51.6295C228.89 49.9275 229.908 47.541 229.908 44.47C229.908 41.362 228.89 38.957 226.855 37.255C224.857 35.553 221.916 34.702 218.031 34.702H205.876L207.708 32.7595V56.125ZM254.753 70.2775C251.941 70.2775 249.406 69.6485 247.149 68.3905C244.929 67.0955 243.172 65.338 241.877 63.118C240.582 60.861 239.934 58.2895 239.934 55.4035C239.934 52.4805 240.582 49.909 241.877 47.689C243.172 45.469 244.929 43.73 247.149 42.472C249.369 41.214 251.904 40.585 254.753 40.585C257.639 40.585 260.192 41.214 262.412 42.472C264.669 43.73 266.426 45.469 267.684 47.689C268.979 49.909 269.627 52.4805 269.627 55.4035C269.627 58.2895 268.979 60.861 267.684 63.118C266.426 65.338 264.669 67.0955 262.412 68.3905C260.155 69.6485 257.602 70.2775 254.753 70.2775ZM254.753 66.781C256.862 66.781 258.73 66.3185 260.358 65.3935C261.986 64.4315 263.263 63.0995 264.188 61.3975C265.15 59.6585 265.631 57.6605 265.631 55.4035C265.631 53.1095 265.15 51.1115 264.188 49.4095C263.263 47.7075 261.986 46.394 260.358 45.469C258.73 44.507 256.88 44.026 254.808 44.026C252.736 44.026 250.886 44.507 249.258 45.469C247.63 46.394 246.335 47.7075 245.373 49.4095C244.411 51.1115 243.93 53.1095 243.93 55.4035C243.93 57.6605 244.411 59.6585 245.373 61.3975C246.335 63.0995 247.63 64.4315 249.258 65.3935C250.886 66.3185 252.718 66.781 254.753 66.781ZM289.549 70.2775C286.737 70.2775 284.202 69.6485 281.945 68.3905C279.725 67.0955 277.968 65.338 276.673 63.118C275.378 60.861 274.73 58.2895 274.73 55.4035C274.73 52.4805 275.378 49.909 276.673 47.689C277.968 45.469 279.725 43.73 281.945 42.472C284.165 41.214 286.7 40.585 289.549 40.585C292.435 40.585 294.988 41.214 297.208 42.472C299.465 43.73 301.222 45.469 302.48 47.689C303.775 49.909 304.423 52.4805 304.423 55.4035C304.423 58.2895 303.775 60.861 302.48 63.118C301.222 65.338 299.465 67.0955 297.208 68.3905C294.951 69.6485 292.398 70.2775 289.549 70.2775ZM289.549 66.781C291.658 66.781 293.526 66.3185 295.154 65.3935C296.782 64.4315 298.059 63.0995 298.984 61.3975C299.946 59.6585 300.427 57.6605 300.427 55.4035C300.427 53.1095 299.946 51.1115 298.984 49.4095C298.059 47.7075 296.782 46.394 295.154 45.469C293.526 44.507 291.676 44.026 289.604 44.026C287.532 44.026 285.682 44.507 284.054 45.469C282.426 46.394 281.131 47.7075 280.169 49.4095C279.207 51.1115 278.726 53.1095 278.726 55.4035C278.726 57.6605 279.207 59.6585 280.169 61.3975C281.131 63.0995 282.426 64.4315 284.054 65.3935C285.682 66.3185 287.514 66.781 289.549 66.781ZM321.681 70.2775C318.943 70.2775 316.834 69.5375 315.354 68.0575C313.874 66.5775 313.134 64.487 313.134 61.786V34.4245H317.074V61.564C317.074 63.266 317.5 64.5795 318.351 65.5045C319.239 66.4295 320.497 66.892 322.125 66.892C323.864 66.892 325.307 66.3925 326.454 65.3935L327.841 68.224C327.064 68.927 326.121 69.445 325.011 69.778C323.938 70.111 322.828 70.2775 321.681 70.2775ZM307.917 44.137V40.8625H325.954V44.137H307.917ZM342.84 70.2775C340.435 70.2775 338.16 69.9445 336.014 69.2785C333.868 68.5755 332.184 67.706 330.963 66.67L332.739 63.562C333.923 64.45 335.44 65.227 337.29 65.893C339.14 66.522 341.083 66.8365 343.118 66.8365C345.893 66.8365 347.891 66.411 349.112 65.56C350.333 64.672 350.943 63.5065 350.943 62.0635C350.943 60.9905 350.592 60.158 349.889 59.566C349.223 58.937 348.335 58.4745 347.225 58.1785C346.115 57.8455 344.875 57.568 343.506 57.346C342.137 57.124 340.768 56.865 339.399 56.569C338.067 56.273 336.846 55.8475 335.736 55.2925C334.626 54.7005 333.72 53.905 333.017 52.906C332.351 51.907 332.018 50.575 332.018 48.91C332.018 47.319 332.462 45.8945 333.35 44.6365C334.238 43.3785 335.533 42.398 337.235 41.695C338.974 40.955 341.083 40.585 343.562 40.585C345.449 40.585 347.336 40.844 349.223 41.362C351.11 41.843 352.664 42.4905 353.885 43.3045L352.164 46.468C350.869 45.58 349.482 44.951 348.002 44.581C346.522 44.174 345.042 43.9705 343.562 43.9705C340.935 43.9705 338.992 44.433 337.734 45.358C336.513 46.246 335.903 47.393 335.903 48.799C335.903 49.909 336.236 50.7785 336.902 51.4075C337.605 52.0365 338.511 52.536 339.621 52.906C340.768 53.239 342.008 53.5165 343.34 53.7385C344.709 53.9605 346.059 54.238 347.391 54.571C348.76 54.867 350 55.2925 351.11 55.8475C352.257 56.3655 353.163 57.124 353.829 58.123C354.532 59.085 354.884 60.3615 354.884 61.9525C354.884 63.6545 354.403 65.1345 353.441 66.3925C352.516 67.6135 351.147 68.5755 349.334 69.2785C347.558 69.9445 345.393 70.2775 342.84 70.2775Z" fill="#5B8E55"/>
<path d="M50.7927 41.5001L62.0569 27.5001M50.7927 60.7501L59.2409 50.2501M69.0971 38.0001L64.521 43.6876M50.7927 78.2501L56.0728 71.6876M71.9131 52.0001L61.3529 65.1251" stroke="#5B8E55" stroke-width="3.3125" stroke-linecap="round"/>
<path d="M50.7926 87C63.2347 87 73.321 74.2394 73.321 58.4985C73.321 42.8809 66.1307 24.6566 54.9123 18.1394C53.6047 17.3798 52.1986 17 50.7926 17M50.7926 87C38.3505 87 28.2642 74.2394 28.2642 58.4985C28.2642 52.9474 29.1726 47.067 30.8473 41.5M50.7926 87V17M50.7926 17C49.3865 17 47.9805 17.3798 46.6729 18.1394C42.1643 20.7586 38.3064 25.2686 35.3043 30.7404" stroke="#5B8E55" stroke-width="3.3125" stroke-linecap="round"/>
</svg>
